<!--<?xml version="1.0" encoding="UTF-8" standalone="no"?>
<!DOCTYPE svg PUBLIC "-//W3C//DTD SVG 1.1//EN" "http://www.w3.org/Graphics/SVG/1.1/DTD/svg11.dtd">
<svg width="456" height="456" viewBox="0 0 456 456" version="1.1" xmlns="http://www.w3.org/2000/svg" xmlns:xlink="http://www.w3.org/1999/xlink" xml:space="preserve" xmlns:serif="http://www.serif.com/" style="fill-rule:evenodd;clip-rule:evenodd;stroke-linejoin:round;stroke-miterlimit:2;">
    <path d="m 105.50037,281.60863 c -2.70293,0 -5.00091,-0.90042 -6.893127,-2.70209 -1.892214,-1.84778 -2.837901,-4.04181 -2.837901,-6.58209 0,-2.58722 0.945687,-4.80389 2.837901,-6.65167 1.892217,-1.84778 4.190197,-2.77167 6.893127,-2.77167 2.74819,0 5.06798,0.92389 6.96019,2.77167 1.93749,1.84778 2.90581,4.06445 2.90581,6.65167 0,2.54028 -0.96832,4.73431 -2.90581,6.58209 -1.89221,1.80167 -4.212,2.70209 -6.96019,2.70209 z" style="fill:#ffffff;fill-rule:nonzero;stroke-width:0.838376" />
    <path d="M 213.56111,280.08446 H 195.99044 L 149.69953,207.0544 c -1.17121,-1.84778 -2.14037,-3.76515 -2.90581,-5.75126 h -0.40578 c 0.36051,2.12528 0.54076,6.67515 0.54076,13.6496 v 65.13172 h -15.54349 v -99.36009 h 18.71925 l 44.7374,71.29798 c 1.89222,2.95695 3.1087,4.98917 3.64945,6.09751 h 0.26996 c -0.45021,-2.6325 -0.67573,-7.09015 -0.67573,-13.37293 v -64.02256 h 15.47557 z" style="fill:#ffffff;fill-rule:nonzero;stroke-width:0.838376" />
    <path d="m 289.25134,280.08446 h -54.40052 v -99.36009 h 52.23835 v 13.99669 h -36.15411 v 28.13085 h 33.31621 v 13.9271 h -33.31621 v 29.37835 h 38.31628 z" style="fill:#ffffff;fill-rule:nonzero;stroke-width:0.838376" />
    <path d="M 366.56466,194.72106 H 338.7222 v 85.3634 h -16.08423 v -85.3634 h -27.77455 v -13.99669 h 71.70124 z" style="fill:#ffffff;fill-rule:nonzero;stroke-width:0.838376" />
</svg>-->
<!DOCTYPE svg PUBLIC "-//W3C//DTD SVG 1.1//EN" "http://www.w3.org/Graphics/SVG/1.1/DTD/svg11.dtd">

<!-- Uploaded to: SVG Repo, www.svgrepo.com, Transformed by: SVG Repo Mixer Tools -->
<svg width="100px" height="100px" viewBox="0 0 64 64" xmlns="http://www.w3.org/2000/svg" fill="#000000" stroke="#000000">

	<g id="SVGRepo_bgCarrier" stroke-width="0"/>

	<g id="SVGRepo_tracerCarrier" stroke-linecap="round" stroke-linejoin="round"/>

	<g id="SVGRepo_iconCarrier">
		<title>tea</title>
		<g id="tea">
			<circle cx="24.5" cy="25.5" r="21.5" style="fill:#eaeaea"/>
			<path d="M43.632,8.5A1.132,1.132,0,1,1,42.5,7.368,1.132,1.132,0,0,1,43.632,8.5Z" style="fill:#4c241d"/>
			<path d="M33.033,37a18.915,18.915,0,0,0,2.654,25H51.313A18.926,18.926,0,0,0,57.5,48a19.127,19.127,0,0,0-.118-2h.032A5.616,5.616,0,0,0,63,40.366V30.634A5.616,5.616,0,0,0,57.414,25H52V18H30l5,7v9.636A19.207,19.207,0,0,0,33.033,37ZM52,29h5.414A1.612,1.612,0,0,1,59,30.634v9.732A1.612,1.612,0,0,1,57.414,42h-.9A19.585,19.585,0,0,0,52,34.636Z" style="fill:#6b4f5b;stroke:#4c241d;stroke-linecap:round;stroke-linejoin:round;stroke-width:2px"/>
			<path d="M10,40H36a0,0,0,0,1,0,0v9A13,13,0,0,1,23,62h0A13,13,0,0,1,10,49V40A0,0,0,0,1,10,40Z" style="fill:#ffffff;stroke:#4c241d;stroke-linecap:round;stroke-linejoin:round;stroke-width:2px"/>
			<path d="M10,42h0a0,0,0,0,1,0,0V52a0,0,0,0,1,0,0h0a4.952,4.952,0,0,1-4.952-4.952v-.1A4.952,4.952,0,0,1,10,42Z" style="fill:none;stroke:#4c241d;stroke-linecap:round;stroke-linejoin:round;stroke-width:2px"/>
			<line x1="52" y1="24" x2="52" y2="31" style="fill:none;stroke:#4c241d;stroke-linecap:round;stroke-linejoin:round;stroke-width:2px"/>
			<line x1="35" y1="25" x2="45" y2="25" style="fill:none;stroke:#4c241d;stroke-linecap:round;stroke-linejoin:round;stroke-width:2px"/>
			<line x1="3" y1="62" x2="63" y2="62" style="fill:none;stroke:#4c241d;stroke-linecap:round;stroke-linejoin:round;stroke-width:2px"/>
			<path d="M17,36V34.5A1.5,1.5,0,0,1,18.5,33h7A1.5,1.5,0,0,0,27,31.5v-4A1.5,1.5,0,0,0,25.5,26h-2A1.5,1.5,0,0,1,22,24.5h0A1.5,1.5,0,0,1,23.5,23h1A1.5,1.5,0,0,0,26,21.5V17" style="fill:none;stroke:#b5a19c;stroke-linecap:round;stroke-linejoin:round;stroke-width:2px"/>
			<path d="M22,37V30.5A1.5,1.5,0,0,0,20.5,29h-1A1.5,1.5,0,0,1,18,27.5v-2A1.5,1.5,0,0,0,16.5,24h0A1.5,1.5,0,0,1,15,22.5v-1A1.5,1.5,0,0,1,16.5,20h2A1.5,1.5,0,0,0,20,18.5V13" style="fill:none;stroke:#b5a19c;stroke-linecap:round;stroke-linejoin:round;stroke-width:2px"/>
			<line x1="34.129" y1="3" x2="31.181" y2="5.948" style="fill:none;stroke:#4c241d;stroke-linecap:round;stroke-linejoin:round;stroke-width:2px"/>
			<line x1="31.181" y1="3" x2="34.129" y2="5.948" style="fill:none;stroke:#4c241d;stroke-linecap:round;stroke-linejoin:round;stroke-width:2px"/>
			<path d="M54,47s0,7-4,11" style="fill:none;stroke:#b5a19c;stroke-linecap:round;stroke-linejoin:round;stroke-width:2px"/>
			<line x1="19" y1="40" x2="19" y2="44" style="fill:none;stroke:#4c241d;stroke-linecap:round;stroke-linejoin:round;stroke-width:2px"/>
			<polygon points="23 54 15 54 15 46.627 17 44 21 44 23 46.756 23 54" style="fill:#a9ba5a;stroke:#4c241d;stroke-linecap:round;stroke-linejoin:round;stroke-width:2px"/>
		</g>
	</g>

</svg>
