<svg xmlns="http://www.w3.org/2000/svg" viewBox="0 0 46.16 50.98" id="spotify">
  <g>
    <g>
      <path fill="#1ed760" d="M46.16,16.5v18c0,2.67-1.43,5.15-3.74,6.48l-13.46,7.76-.71.41-.39.23-.04.03-.08.05-.66.38-.26.15s-.04.02-.06.04c-.17.1-.35.19-.53.26-2.2,1.02-4.77.92-6.89-.3l-15.59-9.01c-2.32-1.33-3.75-3.81-3.75-6.48v-18c0-2.68,1.43-5.15,3.75-6.49L19.34,1.01c2.31-1.34,5.17-1.34,7.48,0l15.6,9c2.31,1.34,3.74,3.81,3.74,6.49Z"></path>
      <path fill="#0aa33d" d="M46.16,30.08v4.41c0,2.67-1.43,5.15-3.74,6.48l-13.46,7.76-.71.41c-5.34-5.33-12.15-12.15-14.34-14.34-2.41-2.37-3.91-5.67-3.91-9.31,0-7.22,5.86-13.08,13.08-13.08,3.65,0,6.94,1.5,9.32,3.91,2.11,2.11,8.53,8.53,13.76,13.76Z"></path>
      <path fill="#fff" d="M23.08,12.42c-7.22,0-13.08,5.86-13.08,13.08s5.86,13.08,13.08,13.08,13.08-5.86,13.08-13.08-5.86-13.08-13.08-13.08ZM28.39,31.66c-.22,0-.36-.07-.56-.19-3.29-1.98-7.12-2.07-10.9-1.29-.21.05-.47.14-.63.14-.51,0-.83-.41-.83-.83,0-.54.32-.8.72-.89,4.32-.95,8.73-.87,12.5,1.38.32.21.51.39.51.87s-.37.81-.8.81ZM29.81,28.2c-.27,0-.46-.12-.65-.22-3.3-1.95-8.21-2.74-12.58-1.55-.25.07-.39.14-.63.14-.56,0-1.02-.46-1.02-1.02s.27-.94.82-1.09c1.47-.41,2.96-.72,5.16-.72,3.42,0,6.73.85,9.33,2.4.43.25.6.58.6,1.04,0,.57-.45,1.03-1.02,1.03ZM31.44,24.18c-.27,0-.44-.07-.68-.21-3.75-2.24-10.47-2.78-14.81-1.57-.19.05-.43.14-.68.14-.7,0-1.23-.54-1.23-1.24s.44-1.12.92-1.26c1.86-.54,3.93-.8,6.2-.8,3.85,0,7.88.8,10.83,2.52.41.24.68.56.68,1.19,0,.72-.58,1.23-1.22,1.23Z"></path>
    </g>
  </g>
</svg>
