<?xml version="1.0" standalone="no"?>
<!DOCTYPE svg PUBLIC "-//W3C//DTD SVG 20010904//EN"
 "http://www.w3.org/TR/2001/REC-SVG-20010904/DTD/svg10.dtd">
<svg version="1.0" xmlns="http://www.w3.org/2000/svg"
 width="500.000000pt" height="500.000000pt" viewBox="0 0 500.000000 500.000000"
 preserveAspectRatio="xMidYMid meet">

<g transform="translate(0.000000,500.000000) scale(0.100000,-0.100000)"
fill="#000000" stroke="none">
<path d="M3716 3708 c-18 -86 -21 -170 -14 -331 4 -75 -13 -118 -89 -229 -29
-42 -53 -80 -53 -85 0 -14 -81 -94 -121 -118 -40 -26 -114 -108 -114 -128 0
-7 -4 -18 -9 -25 -4 -7 -5 -16 -2 -19 3 -4 6 -1 6 5 0 7 5 12 11 12 6 0 8 -7
5 -16 -7 -18 -1 -14 44 23 8 7 32 26 52 43 20 17 40 40 43 51 4 11 11 16 17
13 6 -4 9 -1 6 6 -4 13 40 65 48 57 2 -2 -5 -12 -16 -22 -11 -10 -20 -22 -20
-27 0 -10 14 3 39 35 9 11 10 21 4 30 -6 8 -6 20 1 33 l12 22 11 -24 c6 -13 8
-22 4 -21 -3 1 -7 -1 -8 -5 -5 -15 11 -10 22 6 7 11 6 22 -3 36 -7 12 -8 20
-2 20 6 0 15 -10 20 -22 5 -13 9 -17 9 -10 1 7 19 31 42 53 25 25 39 46 35 55
-3 8 -2 12 3 9 10 -5 103 82 151 140 77 94 126 151 139 161 12 9 -5 32 -97
128 -62 64 -119 128 -128 141 -20 31 -42 32 -48 3z m-83 -645 c-3 -7 -9 -13
-15 -13 -5 0 -7 4 -4 9 4 5 0 11 -6 14 -7 3 -3 4 8 4 14 -1 20 -6 17 -14z
m-268 -263 c-3 -5 -12 -10 -18 -10 -7 0 -6 4 3 10 19 12 23 12 15 0z"/>
<path d="M4192 3627 c-32 -38 -25 -70 45 -212 84 -170 168 -301 224 -349 24
-20 46 -36 50 -36 5 0 6 -6 3 -14 -3 -7 7 -28 22 -45 20 -25 29 -29 35 -19 7
10 9 10 9 -1 0 -8 2 -12 4 -10 5 5 -15 84 -44 169 -31 91 -140 311 -195 395
-26 39 -66 84 -88 100 -54 39 -52 38 -65 22z"/>
<path d="M720 3622 c0 -7 -4 -11 -9 -8 -5 4 -7 -4 -5 -16 2 -13 2 -17 -2 -10
-4 8 -11 6 -25 -10 -15 -18 -18 -19 -13 -5 14 41 -43 -30 -92 -113 -63 -107
-116 -217 -163 -340 -21 -56 -69 -233 -70 -260 0 -8 -2 -28 -5 -45 -3 -16 -3
-22 0 -12 3 9 10 17 15 17 5 0 9 9 9 21 0 11 4 17 10 14 6 -3 10 1 10 10 0 13
4 14 21 4 13 -6 19 -7 15 -1 -3 6 -3 12 1 15 5 2 3 2 -4 1 -7 -2 -15 2 -19 8
-4 7 -3 8 4 4 7 -4 12 -2 12 4 0 7 7 10 15 7 11 -5 13 0 8 25 -4 22 -3 29 5
24 8 -5 12 0 12 13 0 20 66 125 103 166 21 23 177 332 177 350 0 7 6 18 14 24
10 9 13 24 9 49 -6 36 -33 89 -33 64z"/>
<path d="M735 3228 c-2 -7 -9 -31 -16 -53 -6 -22 -25 -69 -40 -104 -33 -74
-34 -78 -14 -83 12 -2 8 -17 -20 -73 -39 -80 -41 -85 -20 -85 19 0 19 0 -9
-71 -14 -33 -22 -67 -19 -75 3 -9 1 -19 -6 -23 -9 -6 -9 -14 0 -34 11 -25 17
-27 76 -27 l63 0 0 -44 c0 -95 -2 -98 -113 -151 -56 -26 -115 -54 -130 -62
-42 -22 -43 -9 -3 22 33 25 36 31 36 81 l0 54 45 0 c25 0 45 2 45 5 0 2 -11
35 -25 71 -14 37 -23 75 -20 84 3 9 -2 33 -10 53 -8 21 -14 49 -13 65 1 15 -7
63 -17 107 -26 116 -24 114 -40 85 -8 -14 -14 -30 -15 -37 0 -6 -9 -32 -20
-57 -11 -26 -19 -49 -19 -53 1 -3 -7 -10 -16 -16 -15 -8 -15 -10 4 -23 20 -14
20 -16 4 -50 -16 -32 -18 -34 -30 -18 -7 10 -13 27 -14 38 0 19 -1 18 -11 -4
-6 -14 -10 -29 -9 -35 1 -5 -7 0 -18 12 l-19 22 -11 -44 c-15 -58 -14 -88 1
-79 7 5 9 2 6 -8 -4 -8 -2 -21 3 -29 7 -11 9 -9 9 9 0 12 4 22 8 22 12 0 10
-44 -2 -52 -7 -5 -7 -8 2 -8 13 0 33 40 25 53 -2 4 0 7 5 7 12 0 23 -26 15
-34 -3 -3 -7 -24 -9 -46 -4 -38 -2 -40 24 -41 15 -1 37 0 50 1 20 1 22 -3 22
-47 l0 -49 -90 -39 c-65 -27 -89 -42 -85 -52 3 -8 5 -28 5 -44 l0 -30 263 2
c370 2 780 16 857 30 66 12 90 23 90 42 0 5 -9 2 -20 -8 -18 -16 -49 -19 -272
-26 -236 -7 -288 -4 -288 19 0 7 100 75 141 96 20 10 24 20 27 69 l3 57 44 0
45 0 -22 53 c-27 66 -33 97 -20 97 6 0 1 18 -10 41 -10 22 -21 62 -23 87 -2
26 -10 67 -18 92 -8 25 -18 61 -23 80 l-7 35 -22 -65 c-12 -36 -30 -80 -39
-97 -20 -39 -20 -43 -1 -43 21 0 19 -6 -16 -68 -22 -39 -27 -57 -19 -62 9 -5
6 -25 -9 -75 -12 -37 -18 -71 -15 -76 3 -5 27 -9 55 -9 l49 0 0 -34 c0 -42 -8
-66 -24 -66 -6 0 -46 -14 -88 -30 -56 -22 -103 -32 -168 -37 -56 -4 -94 -11
-101 -19 -14 -17 3 -18 19 -2 10 10 15 10 22 -2 15 -23 6 -35 -26 -37 -16 0
-33 -2 -39 -3 -5 -1 -23 -2 -39 -1 -28 1 -28 1 17 34 25 17 68 51 96 74 28 22
56 43 62 45 8 3 11 31 10 89 l-2 84 58 3 c31 2 61 6 65 8 4 3 -3 26 -16 52
-38 77 -60 153 -47 162 9 5 7 22 -10 66 -12 32 -24 72 -27 88 -4 25 -2 28 14
22 16 -6 17 -5 2 11 -19 22 -55 123 -64 181 -6 41 -20 55 -29 30z m-333 -600
c-7 -7 -12 -8 -12 -2 0 14 12 26 19 19 2 -3 -1 -11 -7 -17z"/>
<path d="M4160 3178 c-18 -82 -46 -159 -62 -171 -9 -6 -8 -7 5 -3 12 4 17 0
17 -13 0 -25 -35 -124 -56 -158 -10 -16 -12 -23 -4 -15 36 32 35 7 -1 -95 -21
-60 -39 -109 -39 -110 0 -2 27 -3 60 -3 l60 0 0 -90 c0 -67 3 -90 13 -90 7 0
29 -12 48 -26 19 -14 76 -46 128 -72 l95 -47 -65 -6 c-35 -4 -94 -7 -131 -8
l-68 -1 0 31 c0 17 -4 28 -10 24 -5 -3 -10 -1 -10 4 0 6 -11 11 -24 11 -24 0
-81 22 -173 67 l-53 26 0 53 0 53 48 3 47 3 -2 42 c-1 23 -9 53 -19 68 -12 19
-14 29 -6 37 8 8 5 25 -9 61 -12 30 -16 53 -10 56 5 4 0 27 -14 56 -13 28 -24
57 -25 65 0 8 -7 26 -14 39 -12 22 -14 19 -30 -50 -10 -41 -26 -83 -35 -93 -9
-11 -11 -16 -4 -13 6 4 14 4 17 -1 6 -10 -21 -91 -36 -110 -8 -9 -7 -11 6 -6
21 8 21 4 -8 -76 -27 -73 -24 -80 25 -80 17 0 19 -8 19 -64 l0 -65 99 -48 99
-49 -41 -23 c-38 -22 -46 -23 -166 -17 -69 4 -178 9 -241 12 -63 4 -118 8
-122 11 -5 2 -8 0 -8 -5 0 -30 299 -46 847 -47 l331 -1 5 41 c6 50 -9 65 -98
97 l-65 23 0 47 0 47 47 3 c41 3 48 6 53 28 4 16 14 26 28 28 12 2 22 9 22 15
0 7 4 6 10 -3 7 -11 10 -1 9 35 0 43 -2 47 -10 25 -7 -17 -12 -21 -18 -12 -4
7 -21 14 -38 15 -17 1 -29 5 -27 9 2 3 -4 9 -13 11 -16 4 -16 5 1 6 12 1 16 6
12 16 -3 8 1 21 9 29 23 23 17 31 -6 10 -22 -19 -22 -19 -10 4 12 23 6 47 -9
37 -5 -3 -14 4 -20 15 -9 16 -8 20 5 20 19 0 19 5 1 33 -8 12 -17 33 -21 47
-7 21 -6 23 7 12 13 -10 16 -9 20 13 6 28 4 29 -22 15 -16 -8 -20 -5 -30 28
-7 20 -16 41 -20 45 -8 9 -56 -168 -52 -193 1 -8 -6 -39 -17 -67 -11 -29 -15
-55 -11 -58 5 -3 -2 -38 -16 -77 -13 -39 -24 -75 -24 -79 0 -4 19 -9 42 -11
l43 -3 0 -55 c0 -45 4 -56 20 -65 17 -8 84 -57 118 -85 4 -4 -12 -6 -37 -6
-24 1 -42 5 -39 9 2 4 13 5 24 2 33 -11 21 10 -18 32 -136 73 -174 92 -225
113 l-58 24 0 68 0 68 65 0 c61 0 65 1 80 30 19 36 19 40 1 40 -8 0 -17 14
-21 33 -4 17 -10 37 -14 42 -16 26 -30 80 -21 83 6 2 10 9 10 16 0 12 -30 82
-52 120 -8 15 -7 22 6 32 16 11 16 15 -3 52 -11 22 -30 68 -42 103 -32 97 -42
101 -59 27z m382 -450 c-7 -7 -12 -8 -12 -2 0 6 3 14 7 17 3 4 9 5 12 2 2 -3
-1 -11 -7 -17z"/>
<path d="M1519 3168 c-8 -7 -45 -38 -84 -68 -38 -30 -80 -64 -91 -76 l-22 -21
82 -85 c44 -46 80 -82 79 -80 -2 3 2 11 9 19 8 11 7 12 -6 7 -12 -5 -15 -2 -9
12 5 14 3 16 -11 11 -10 -4 -15 -3 -11 3 3 6 14 10 23 10 15 0 15 2 2 10 -13
8 -13 10 1 10 9 0 19 8 23 18 3 9 18 33 32 52 24 32 26 40 20 105 -7 76 -16
93 -37 73z"/>
<path d="M3800 3055 c-13 -14 -21 -27 -18 -30 2 -3 14 9 27 25 26 37 23 39 -9
5z"/>
<path d="M2395 3008 c-48 -17 -94 -56 -117 -101 -31 -59 -30 -166 1 -230 13
-26 26 -47 31 -47 4 0 13 33 19 74 13 93 36 151 69 176 56 45 148 7 170 -69 4
-14 7 -72 7 -128 0 -57 2 -103 5 -103 3 0 12 15 21 33 9 17 22 31 29 29 6 -1
8 2 5 8 -4 6 1 28 11 48 24 49 23 155 -1 205 -42 90 -157 138 -250 105z"/>
<path d="M2410 2853 c-37 -31 -46 -52 -66 -153 -28 -149 -12 -288 44 -368 86
-122 90 -209 12 -289 -63 -65 -73 -87 -74 -159 -1 -51 3 -66 26 -96 58 -77
181 -115 221 -70 21 23 22 39 2 22 -31 -26 -91 14 -99 67 -7 47 15 75 88 108
117 54 156 113 156 233 0 82 -22 162 -51 188 -22 19 -22 19 -10 -4 7 -13 10
-26 8 -29 -3 -2 -21 26 -42 64 -46 85 -69 187 -61 271 6 67 -6 152 -26 190
-13 25 -56 52 -82 52 -8 0 -29 -12 -46 -27z m-25 -413 c9 -26 31 -73 51 -105
44 -73 38 -83 -7 -13 -60 93 -76 137 -83 238 l-5 75 14 -73 c8 -41 21 -95 30
-122z"/>
<path d="M405 2750 c-4 -12 -5 -24 -2 -27 3 -2 8 5 12 17 4 12 5 24 2 27 -3 2
-8 -5 -12 -17z"/>
<path d="M3015 2678 c-16 -15 -25 -28 -19 -28 12 0 60 48 53 53 -2 2 -17 -10
-34 -25z"/>
<path d="M2940 2610 c-18 -16 -30 -30 -26 -30 5 0 24 14 43 30 18 17 30 30 25
30 -5 0 -24 -13 -42 -30z"/>
<path d="M695 2300 c3 -5 8 -10 11 -10 2 0 4 5 4 10 0 6 -5 10 -11 10 -5 0 -7
-4 -4 -10z"/>
<path d="M2193 2015 c0 -22 2 -30 4 -17 2 12 2 30 0 40 -3 9 -5 -1 -4 -23z"/>
<path d="M4125 1848 c-4 -57 -5 -138 -3 -180 2 -43 0 -78 -3 -78 -9 0 -95 93
-108 118 -14 26 -41 29 -41 4 0 -17 89 -136 120 -159 8 -6 12 -15 7 -19 -4 -4
-7 -3 -7 3 0 7 -12 8 -32 4 -18 -4 -48 -4 -65 0 -18 4 -31 4 -29 0 3 -4 1 -13
-5 -21 -7 -13 -9 -12 -9 1 0 9 -7 22 -15 29 -27 23 -27 3 1 -29 14 -18 29 -29
32 -26 3 2 12 -4 20 -16 9 -13 21 -19 33 -16 10 3 17 1 16 -5 -1 -5 15 -15 35
-22 35 -13 37 -12 41 8 2 11 5 -56 6 -151 0 -94 4 -179 7 -188 6 -14 8 -14 25
1 17 16 19 34 19 224 l0 207 29 26 c16 14 33 22 37 19 4 -4 4 -2 1 5 -4 6 -1
17 6 25 7 7 20 25 30 41 9 15 24 38 32 51 13 20 14 24 2 29 -9 3 -35 -20 -71
-64 -32 -38 -61 -69 -66 -69 -5 0 -11 76 -12 172 -2 118 -7 173 -15 175 -7 3
-13 -28 -18 -99z m-125 -322 c0 -11 -19 -15 -25 -6 -3 5 1 10 9 10 9 0 16 -2
16 -4z"/>
<path d="M725 1875 c-4 -30 -5 -106 -3 -170 l4 -115 -37 36 c-20 19 -49 53
-65 74 -45 62 -75 49 -35 -15 10 -16 44 -59 75 -95 49 -57 56 -70 55 -105 -1
-22 -1 -99 0 -172 1 -125 2 -133 26 -160 l24 -28 0 208 0 208 48 57 c93 108
107 132 81 132 -7 0 -38 -30 -68 -65 -30 -35 -58 -65 -62 -65 -5 0 -8 74 -8
165 0 136 -2 165 -14 165 -10 0 -17 -17 -21 -55z"/>
<path d="M3490 1543 c0 -18 0 -36 -1 -40 0 -4 5 -9 12 -12 7 -2 9 1 5 8 -4 6
-2 11 5 11 8 0 7 5 -2 17 -10 11 -10 14 -1 9 7 -4 12 -1 12 9 0 10 -5 13 -12
9 -10 -6 -10 -5 -1 7 10 13 10 16 -2 16 -10 0 -15 -11 -15 -34z"/>
<path d="M4220 1560 c0 -6 7 -10 15 -10 8 0 15 2 15 4 0 2 -7 6 -15 10 -8 3
-15 1 -15 -4z"/>
<path d="M530 1557 c0 -2 6 -10 14 -16 11 -9 16 -9 22 1 4 7 4 10 -1 6 -4 -4
-14 -3 -22 3 -7 6 -13 9 -13 6z"/>
<path d="M4193 1541 c-10 -16 -8 -17 14 -13 14 3 21 8 16 11 -4 3 -10 9 -13
13 -3 4 -11 -1 -17 -11z"/>
<path d="M4285 1550 c-3 -5 -1 -10 4 -10 6 0 11 5 11 10 0 6 -2 10 -4 10 -3 0
-8 -4 -11 -10z"/>
<path d="M4245 1530 c3 -5 10 -10 16 -10 5 0 9 5 9 10 0 6 -7 10 -16 10 -8 0
-12 -4 -9 -10z"/>
<path d="M4273 1507 c-14 -16 -18 -29 -12 -38 5 -8 9 -11 10 -6 1 4 3 12 4 17
1 6 3 15 4 20 0 6 6 10 12 10 6 0 8 -7 5 -17 -6 -15 -5 -15 13 1 18 16 20 36
5 36 -3 0 -2 -4 1 -10 3 -5 2 -10 -4 -10 -5 0 -11 5 -13 11 -2 5 -13 -1 -25
-14z"/>
<path d="M570 1516 c0 -2 7 -9 15 -16 9 -7 15 -8 15 -2 0 5 -7 12 -15 16 -8 3
-15 4 -15 2z"/>
<path d="M4192 1508 c-7 -7 -12 -16 -12 -21 0 -5 7 -1 16 8 9 9 14 18 12 20
-2 3 -10 -1 -16 -7z"/>
<path d="M4216 1498 c-14 -16 -15 -20 -3 -15 9 3 18 -1 21 -8 4 -10 -1 -14
-16 -12 -11 1 -23 -5 -25 -13 -4 -13 -3 -13 6 0 9 12 13 12 19 2 7 -11 11 -11
20 0 7 9 8 19 2 28 -13 21 -12 33 2 24 7 -4 8 -3 4 4 -9 15 -8 16 -30 -10z"/>
<path d="M1691 1500 c-76 -18 -112 -75 -97 -156 15 -80 158 -178 376 -255
l105 -38 -145 -1 c-80 0 -155 -3 -167 -6 -21 -6 -21 -7 -6 -30 9 -14 11 -24 4
-24 -5 0 -8 -7 -5 -15 4 -8 2 -15 -4 -15 -6 0 -7 -11 -3 -27 6 -24 14 -29 57
-35 77 -10 168 -9 223 3 37 8 60 7 93 -2 32 -10 167 -12 548 -9 278 2 521 4
542 5 36 2 44 -17 12 -29 -12 -5 -13 -10 -4 -26 6 -12 9 -31 7 -43 -3 -17 -5
-16 -6 7 l-1 29 -22 -20 c-13 -11 -33 -26 -45 -32 -13 -6 -23 -20 -23 -31 0
-10 -4 -22 -10 -25 -6 -4 -7 1 -3 12 5 15 4 16 -8 6 -8 -6 -25 -13 -39 -15
-16 -2 -25 -9 -24 -20 1 -10 -2 -16 -6 -13 -5 3 -12 0 -16 -6 -5 -8 5 -9 35
-4 23 4 41 3 41 -3 0 -21 -57 -32 -172 -32 -67 0 -119 -2 -116 -5 3 -3 26 -6
51 -7 33 0 44 -4 40 -14 -3 -9 2 -11 19 -8 14 3 9 -1 -12 -11 l-35 -17 25 -10
c14 -5 54 -11 90 -13 36 -2 56 0 46 4 -19 7 -19 8 2 13 12 4 20 2 17 -2 -3 -5
0 -12 6 -16 6 -3 15 -1 19 5 5 9 10 8 19 -3 22 -26 -22 -40 -103 -31 -107 11
-321 5 -380 -11 -28 -8 -66 -17 -83 -20 -18 -4 -33 -11 -33 -16 0 -5 -10 -7
-22 -4 -13 3 -17 3 -10 0 10 -5 10 -9 1 -20 -14 -17 -70 -19 -86 -3 -7 7 -23
8 -45 3 l-33 -8 40 -12 c64 -20 166 -17 240 7 35 12 62 26 59 30 -3 5 2 6 10
3 8 -3 30 1 47 10 18 9 39 16 49 16 9 0 22 6 30 12 12 11 12 10 2 -3 -11 -14
-8 -18 20 -23 18 -4 43 -8 56 -9 12 -1 22 -5 22 -9 0 -5 -1 -8 -2 -8 -90 -6
-146 -15 -157 -24 -11 -8 -13 -8 -8 1 5 7 1 9 -12 6 -12 -3 -17 -11 -14 -19 5
-13 -25 -20 -66 -15 -8 2 -10 -2 -5 -10 4 -7 3 -10 -2 -7 -16 10 -56 -11 -48
-24 4 -9 2 -8 -7 1 -9 9 -10 15 -3 18 6 2 20 11 30 19 18 14 18 15 -3 5 -12
-6 -37 -11 -56 -11 -42 0 -54 -11 -27 -25 18 -10 15 -11 -20 -10 -39 0 -54 17
-27 29 6 3 -18 5 -55 3 -37 -2 -69 0 -70 4 -5 12 -48 21 -48 10 0 -6 10 -11
23 -12 12 0 16 -3 9 -6 -6 -2 -10 -9 -6 -14 3 -5 1 -9 -4 -9 -5 0 -18 17 -27
37 -16 33 -19 35 -25 18 -5 -13 -1 -25 9 -33 14 -12 14 -12 -4 -8 -19 5 -100
8 -150 4 -11 0 -23 -6 -26 -11 -9 -13 -42 0 -34 13 4 6 -1 19 -12 28 -10 9
-18 28 -18 42 0 22 -5 25 -37 28 -21 2 -38 8 -38 13 0 5 -11 7 -25 3 -19 -5
-25 -2 -25 11 0 9 -9 19 -20 22 -10 3 -23 17 -28 32 l-9 26 -7 -32 c-4 -18 -4
-38 0 -44 4 -8 3 -9 -5 -5 -8 5 -10 22 -5 52 6 44 -1 55 -24 32 -9 -9 -12 -9
-12 0 0 7 -5 12 -11 12 -5 0 -7 -5 -3 -11 3 -6 0 -15 -7 -20 -23 -14 -31 -10
-24 11 9 29 -2 42 -26 30 -10 -6 -19 -7 -19 -2 0 5 -11 20 -24 33 -13 13 -25
33 -27 44 -3 12 -14 21 -27 23 -12 2 -20 8 -17 13 10 15 -5 10 -38 -13 l-32
-22 19 23 c11 12 21 27 23 34 16 67 16 66 -3 61 -28 -8 -47 -25 -76 -67 -17
-26 -28 -34 -32 -25 -3 7 -4 3 -2 -10 4 -20 2 -22 -12 -10 -9 7 -25 22 -35 33
-47 54 -72 75 -89 75 -40 0 -111 55 -103 81 4 13 -2 18 -27 22 -101 17 -133
36 -133 82 -1 17 4 33 10 37 5 4 0 8 -12 8 -26 0 -29 18 -8 46 19 25 19 40 0
24 -9 -8 -15 -8 -15 -2 0 6 -9 14 -20 17 -11 4 -18 10 -15 15 3 4 2 16 -1 25
-6 15 -8 15 -24 0 -17 -15 -20 -14 -45 22 -21 30 -25 33 -20 13 10 -35 32 -57
76 -76 33 -15 38 -21 41 -59 3 -41 2 -42 -19 -34 -24 9 -33 -5 -10 -14 9 -4 9
-6 -1 -6 -7 -1 -15 6 -18 14 -4 10 -19 15 -43 15 -45 0 -86 -11 -74 -19 5 -3
19 -19 32 -36 13 -16 21 -22 18 -12 -4 9 -2 17 3 17 6 0 10 -6 10 -12 0 -7 10
-24 21 -38 16 -20 18 -21 10 -4 -6 12 -7 25 -3 29 4 5 2 5 -4 2 -6 -3 -11 0
-11 7 0 10 12 6 39 -12 39 -25 48 -58 16 -56 -11 1 -1 -14 26 -42 41 -41 57
-47 82 -31 6 3 14 4 17 1 8 -8 -3 -34 -15 -34 -5 0 -6 4 -3 10 4 6 -1 7 -11 3
-14 -5 -12 -8 10 -20 14 -7 26 -18 26 -22 0 -11 99 -87 107 -83 3 2 10 -2 14
-10 7 -11 11 -10 19 2 9 13 10 13 10 0 0 -45 194 -162 402 -244 96 -38 116
-33 123 26 3 31 15 32 16 2 0 -16 3 -22 6 -14 7 16 23 30 37 30 5 0 1 -9 -9
-20 -16 -18 -16 -20 -2 -20 20 0 23 -16 5 -23 -7 -2 3 -9 22 -16 l35 -11 -40
5 c-100 13 93 -49 205 -66 30 -4 96 -15 145 -23 105 -18 349 -21 480 -5 330
38 698 166 935 324 159 107 254 195 209 195 -5 0 -7 5 -4 11 5 6 12 4 20 -8
24 -32 29 -4 6 30 l-22 32 26 -29 27 -29 29 29 c15 16 34 34 41 40 28 24 61
68 74 100 15 37 29 47 19 14 -9 -27 -1 -25 19 5 l16 25 -55 0 c-31 0 -54 -4
-51 -9 9 -14 -23 -35 -52 -36 -15 0 -26 -5 -25 -12 1 -6 -11 -16 -26 -21 -21
-7 -31 -19 -36 -40 -3 -17 -18 -38 -32 -47 -15 -11 -23 -23 -20 -34 3 -14 -1
-17 -19 -13 -14 2 -21 9 -17 18 3 8 0 14 -6 14 -6 0 -11 -4 -11 -9 0 -15 -33
-23 -41 -10 -4 7 -16 10 -26 7 -24 -6 -26 12 -4 32 13 13 14 12 8 -4 -6 -15
-3 -17 13 -13 11 3 20 1 20 -4 0 -5 4 -9 8 -9 4 0 8 15 7 33 0 25 -5 33 -22
35 -14 2 -23 -2 -23 -9 0 -8 -5 -6 -13 5 -12 16 -14 16 -31 -3 -10 -11 -16
-23 -14 -28 6 -9 -28 -44 -35 -36 -3 2 -4 -9 -3 -26 1 -16 -2 -28 -6 -25 -7 5
-13 -27 -9 -49 1 -5 -3 -6 -9 -2 -5 3 -10 2 -10 -3 0 -8 -80 -45 -86 -39 -2 1
5 24 14 50 16 44 16 48 -1 76 -16 28 -16 29 6 45 l22 16 -26 -9 c-22 -8 -26
-7 -25 7 0 9 -7 18 -17 20 -16 3 -15 -2 7 -47 14 -28 26 -62 26 -77 0 -27 -38
-104 -51 -104 -14 0 -57 60 -64 88 -3 17 1 48 9 73 21 58 20 58 -11 53 -27 -5
-27 -5 -8 10 11 9 18 16 15 16 -3 1 -13 3 -23 5 -30 6 -45 24 -39 47 4 17 2
20 -13 15 -12 -5 -16 -3 -12 7 4 9 -1 17 -11 19 -9 3 -2 5 17 6 19 0 31 4 27
9 -4 4 -112 9 -239 12 l-232 5 89 28 c119 38 286 126 341 179 68 66 83 151 38
207 -13 15 -37 25 -83 33 -58 10 -75 8 -165 -14 -146 -37 -249 -83 -303 -135
-26 -24 -71 -56 -102 -71 -52 -25 -63 -27 -190 -27 -132 0 -137 1 -200 32 -36
17 -75 41 -87 52 -30 29 -41 26 -53 -11 -10 -33 -10 -33 -6 -3 3 17 8 38 11
47 5 12 -2 21 -24 33 -55 28 -194 76 -264 91 -75 15 -95 16 -146 4z m-701
-340 c0 -5 -4 -10 -10 -10 -5 0 -10 5 -10 10 0 6 5 10 10 10 6 0 10 -4 10 -10z
m-16 -149 c3 -4 -6 -6 -19 -3 -14 2 -25 6 -25 8 0 8 39 4 44 -5z m3056 -5 c0
-3 -4 -8 -10 -11 -5 -3 -10 -1 -10 4 0 6 5 11 10 11 6 0 10 -2 10 -4z m-2987
-104 c-5 -11 -7 -11 -14 0 -7 10 -9 11 -9 0 0 -7 -5 -10 -11 -6 -8 5 -8 8 0
14 20 12 39 7 34 -8z m2229 -14 c-16 -16 -15 -30 1 -27 6 2 26 0 42 -4 27 -7
30 -12 30 -45 0 -20 4 -50 8 -65 7 -26 6 -28 -15 -22 -36 11 -57 35 -68 76 -6
23 -18 40 -30 44 -18 6 -18 8 8 30 28 25 45 34 24 13z m568 -72 c0 -2 -13 -6
-29 -8 -17 -2 -28 -1 -25 4 5 8 54 12 54 4z m-271 -93 c-12 -15 -12 -16 4 -10
26 10 22 -29 -5 -47 -35 -23 -71 -27 -97 -14 -40 21 -34 34 26 53 32 11 62 23
68 27 16 14 18 9 4 -9z m-191 -31 c29 -19 24 -34 -14 -44 -33 -9 -73 2 -110
31 l-25 20 33 10 c38 11 83 5 116 -17z m332 24 c0 -2 -7 -7 -16 -10 -8 -3 -12
-2 -9 4 6 10 25 14 25 6z m-2115 -26 c-3 -5 -12 -10 -18 -10 -7 0 -6 4 3 10
19 12 23 12 15 0z m-298 -15 c0 -8 -4 -12 -9 -9 -5 3 -6 10 -3 15 9 13 12 11
12 -6z m2103 -54 c0 -5 -9 -7 -20 -4 -11 3 -20 7 -20 9 0 2 9 4 20 4 11 0 20
-4 20 -9z m-403 -37 c-3 -3 -12 -4 -19 -1 -8 3 -5 6 6 6 11 1 17 -2 13 -5z
m-1147 -51 c0 -13 3 -13 15 -3 9 7 15 8 15 2 0 -9 -30 -26 -35 -20 -1 2 -6 14
-10 27 -5 16 -4 21 4 17 6 -4 11 -14 11 -23z m777 -35 c0 -7 -14 -14 -30 -14
l-30 -1 24 13 c30 17 36 17 36 2z m-90 -104 c-3 -3 -12 -4 -19 -1 -8 3 -5 6 6
6 11 1 17 -2 13 -5z m-184 -11 c-7 -2 -19 -2 -25 0 -7 3 -2 5 12 5 14 0 19 -2
13 -5z m57 -3 c-13 -8 -12 -10 4 -10 11 0 17 -3 13 -6 -3 -4 -13 -4 -22 0 -18
6 -11 26 8 26 7 0 6 -4 -3 -10z"/>
<path d="M1310 1475 c7 -8 27 -15 44 -15 31 1 31 1 -9 15 -50 18 -50 18 -35 0z"/>
<path d="M3752 1468 c-24 -24 -12 -78 28 -123 19 -22 35 -85 21 -85 -4 0 -16
10 -27 21 -20 23 -73 49 -99 49 -24 0 -17 -26 16 -59 25 -25 39 -31 74 -31
l44 0 7 -45 c3 -25 4 -48 1 -52 -3 -3 -19 4 -35 16 -35 25 -102 29 -102 7 0
-25 42 -46 92 -46 l48 0 0 -41 c0 -32 4 -42 20 -46 11 -3 18 -9 15 -13 -3 -4
2 -11 11 -14 8 -3 12 -2 9 4 -6 9 35 15 78 12 26 -3 20 5 -13 17 -23 7 -29 7
-24 -1 5 -8 -1 -9 -17 -5 -13 4 -34 7 -46 7 -20 0 -23 5 -23 38 l0 38 54 0
c39 -1 59 4 75 18 32 29 27 46 -14 46 -37 0 -85 -18 -85 -32 0 -4 -7 -8 -15
-8 -10 0 -15 10 -15 33 0 17 -3 42 -6 54 -5 18 -1 25 17 32 36 14 78 63 85 99
5 25 3 32 -9 32 -23 0 -66 -46 -73 -78 -3 -15 -8 -34 -11 -42 -9 -28 -24 32
-26 106 -2 86 -24 123 -55 92z"/>
<path d="M3508 1443 c6 -2 18 -2 25 0 6 3 1 5 -13 5 -14 0 -19 -2 -12 -5z"/>
<path d="M1093 1418 c-12 -13 -23 -43 -27 -68 l-5 -45 12 35 c7 19 20 50 30
68 21 38 18 40 -10 10z"/>
<path d="M3524 1395 c11 -8 25 -15 30 -15 6 0 2 7 -8 15 -11 8 -25 15 -30 15
-6 0 -2 -7 8 -15z"/>
<path d="M1051 1283 c-1 -21 -21 -34 -21 -15 0 4 -9 8 -21 8 -19 0 -19 -1 4
-18 21 -15 24 -24 21 -70 -4 -52 -3 -52 11 17 8 39 13 77 11 85 -2 8 -4 5 -5
-7z"/>
<path d="M3920 1264 l-25 -14 29 5 c32 5 41 11 29 18 -5 3 -19 -1 -33 -9z"/>
<path d="M1326 939 c-19 -23 -13 -39 15 -39 14 0 19 7 19 24 0 33 -13 39 -34
15z"/>
<path d="M1376 953 c-12 -13 -6 -53 9 -53 9 0 15 9 15 24 0 26 -12 40 -24 29z"/>
<path d="M1640 931 c0 -6 0 -14 -1 -18 0 -11 57 -22 70 -14 17 11 -3 30 -37
37 -21 4 -32 3 -32 -5z"/>
<path d="M3510 854 c0 -8 5 -12 10 -9 6 3 10 10 10 16 0 5 -4 9 -10 9 -5 0
-10 -7 -10 -16z"/>
<path d="M2708 743 c12 -2 30 -2 40 0 9 3 -1 5 -23 4 -22 0 -30 -2 -17 -4z"/>
<path d="M2689 694 c-8 -10 -8 -14 0 -14 6 0 11 4 11 9 0 5 19 7 43 4 51 -7
47 2 -5 10 -25 4 -40 1 -49 -9z"/>
<path d="M2843 683 c9 -2 23 -2 30 0 6 3 -1 5 -18 5 -16 0 -22 -2 -12 -5z"/>
<path d="M2455 655 l-50 -13 50 -1 c63 -1 102 8 83 20 -16 10 -19 10 -83 -6z"/>
<path d="M1960 641 l-35 -7 45 -6 c24 -4 47 -3 50 1 3 4 12 11 20 14 20 7 -36
6 -80 -2z"/>
<path d="M2368 643 c6 -2 18 -2 25 0 6 3 1 5 -13 5 -14 0 -19 -2 -12 -5z"/>
<path d="M2620 640 c-24 -15 -7 -17 35 -4 38 12 38 12 10 13 -16 0 -37 -3 -45
-9z"/>
<path d="M2278 633 c7 -3 16 -2 19 1 4 3 -2 6 -13 5 -11 0 -14 -3 -6 -6z"/>
<path d="M2655 620 c3 -5 8 -10 11 -10 2 0 4 5 4 10 0 6 -5 10 -11 10 -5 0 -7
-4 -4 -10z"/>
<path d="M2818 623 c7 -3 16 -2 19 1 4 3 -2 6 -13 5 -11 0 -14 -3 -6 -6z"/>
<path d="M1968 610 c13 -5 31 -17 39 -26 15 -15 13 -16 -30 -13 -28 3 -42 0
-37 -5 10 -10 111 -8 180 4 l45 7 -38 2 c-21 0 -47 6 -59 12 -11 6 -22 8 -25
5 -3 -3 5 -10 18 -15 19 -8 20 -10 6 -10 -10 -1 -25 6 -33 14 -13 12 -11 16
18 25 l33 10 -35 -6 c-42 -7 -48 -7 -80 1 -25 5 -25 5 -2 -5z"/>
<path d="M2525 610 c-3 -5 -4 -14 -1 -19 3 -5 -6 -12 -22 -16 -15 -4 -27 -5
-27 -3 0 1 -11 -5 -24 -14 -16 -12 -29 -14 -41 -8 -9 5 -22 5 -30 0 -7 -4 -24
-4 -37 1 -12 5 -23 5 -23 1 0 -4 -5 0 -10 8 -7 12 -12 12 -22 2 -9 -9 -9 -12
2 -14 30 -3 35 -4 57 -16 26 -15 189 -16 198 -2 3 6 15 10 26 10 13 0 19 7 19
21 0 19 -1 19 -16 5 -17 -18 -28 -21 -19 -6 3 6 0 10 -7 11 -7 0 -2 5 11 10
26 10 61 3 61 -12 0 -11 140 -2 152 10 5 4 -13 8 -40 9 -84 3 -92 4 -87 12 3
5 1 11 -5 15 -5 3 -10 -1 -10 -9 0 -9 -7 -16 -16 -16 -8 0 -13 4 -10 8 3 5 -8
9 -24 9 -16 0 -27 -4 -24 -9 3 -4 -2 -5 -10 -2 -9 3 -13 10 -10 15 3 5 3 9 0
9 -3 0 -8 -4 -11 -10z m150 -30 c-3 -5 -16 -10 -28 -9 -21 0 -21 1 -2 9 28 12
37 12 30 0z"/>
<path d="M1855 580 c3 -5 8 -10 11 -10 2 0 4 5 4 10 0 6 -5 10 -11 10 -5 0 -7
-4 -4 -10z"/>
<path d="M1968 583 c7 -3 16 -2 19 1 4 3 -2 6 -13 5 -11 0 -14 -3 -6 -6z"/>
<path d="M2178 573 c6 -2 18 -2 25 0 6 3 1 5 -13 5 -14 0 -19 -2 -12 -5z"/>
<path d="M2245 570 l-30 -8 27 -1 c15 0 30 4 33 9 3 6 5 9 3 9 -2 -1 -16 -5
-33 -9z"/>
<path d="M2030 530 c0 -6 4 -9 9 -6 5 4 20 2 33 -3 12 -5 56 -12 97 -16 61 -6
72 -5 66 6 -6 11 -5 12 6 2 7 -7 18 -13 24 -13 5 0 3 5 -5 11 -11 8 -6 9 20 5
31 -5 32 -4 15 6 -28 17 -265 24 -265 8z"/>
</g>
</svg>
